<svg width="27" height="29" viewBox="0 0 27 29" fill="none" xmlns="http://www.w3.org/2000/svg">
<path fill-rule="evenodd" clip-rule="evenodd" d="M18.8027 0C23.3821 0 26.4583 3.13596 26.4583 7.80276V21.1972C26.4583 25.9048 23.4767 28.9665 18.8624 28.9956L7.65711 29C3.0777 29 0 25.864 0 21.1972V7.80276C0 3.09372 2.98157 0.0335008 7.59593 0.00582622L18.8012 0H18.8027ZM18.8027 2.18483L7.60321 2.19066C4.21236 2.21105 2.18483 4.30849 2.18483 7.80276V21.1972C2.18483 24.7148 4.23129 26.8152 7.65565 26.8152L18.8551 26.8108C22.246 26.7904 24.2735 24.6901 24.2735 21.1972V7.80276C24.2735 4.28518 22.2285 2.18483 18.8027 2.18483ZM18.5217 19.6252C19.1247 19.6252 19.6141 20.1146 19.6141 20.7176C19.6141 21.3206 19.1247 21.81 18.5217 21.81H8.00537C7.40236 21.81 6.91295 21.3206 6.91295 20.7176C6.91295 20.1146 7.40236 19.6252 8.00537 19.6252H18.5217ZM18.5217 13.5273C19.1247 13.5273 19.6141 14.0167 19.6141 14.6197C19.6141 15.2227 19.1247 15.7121 18.5217 15.7121H8.00537C7.40236 15.7121 6.91295 15.2227 6.91295 14.6197C6.91295 14.0167 7.40236 13.5273 8.00537 13.5273H18.5217ZM12.0177 7.44358C12.6208 7.44358 13.1102 7.93298 13.1102 8.53599C13.1102 9.13901 12.6208 9.62841 12.0177 9.62841H8.00493C7.40192 9.62841 6.91252 9.13901 6.91252 8.53599C6.91252 7.93298 7.40192 7.44358 8.00493 7.44358H12.0177Z" fill="#808080"/>
</svg>
