<svg width="26" height="27" viewBox="0 0 26 27" fill="none" xmlns="http://www.w3.org/2000/svg">
<path fill-rule="evenodd" clip-rule="evenodd" d="M14.7051 17.9358C16.2161 17.9358 17.446 19.1569 17.446 20.6579V24.5184C17.446 24.8409 17.7046 25.0994 18.0359 25.107H20.4279C22.313 25.107 23.8454 23.5934 23.8454 21.7335V10.7847C23.8366 10.1446 23.5316 9.54222 23.0083 9.14187L14.7339 2.54298C13.6232 1.66321 12.0695 1.66321 10.9551 2.54549L2.7372 9.13936C2.19377 9.55226 1.8888 10.1547 1.88253 10.806V21.7335C1.88253 23.5934 3.41491 25.107 5.29994 25.107H7.7146C8.05471 25.107 8.33082 24.8371 8.33082 24.5058C8.33082 24.433 8.3396 24.3602 8.35466 24.2912V20.6579C8.35466 19.1657 9.57705 17.9458 11.0768 17.9358H14.7051ZM20.4279 26.9895H18.0133C16.6303 26.9569 15.5635 25.8713 15.5635 24.5184V20.6579C15.5635 20.1948 15.1782 19.8183 14.7051 19.8183H11.0831C10.62 19.8208 10.2372 20.1986 10.2372 20.6579V24.5058C10.2372 24.5999 10.2246 24.6903 10.1983 24.7756C10.0627 26.0181 9.001 26.9895 7.7146 26.9895H5.29994C2.37701 26.9895 0 24.6313 0 21.7335V10.7972C0.0125502 9.54975 0.587349 8.40769 1.58007 7.65593L9.78162 1.07336C11.5876 -0.357366 14.1039 -0.357366 15.9061 1.07085L24.1666 7.6597C25.1368 8.3989 25.7116 9.53846 25.7279 10.7709V21.7335C25.7279 24.6313 23.3509 26.9895 20.4279 26.9895Z" fill="#F75707"/>
</svg>
