<svg width="27" height="31" viewBox="0 0 27 31" fill="none" xmlns="http://www.w3.org/2000/svg">
<path fill-rule="evenodd" clip-rule="evenodd" d="M16.7436 0C16.8091 0 16.8734 0.00551726 16.9359 0.0161123L17.1447 0.0173934C17.4559 0.0173934 17.7535 0.144029 17.9701 0.368313L25.698 8.41962C25.9024 8.6317 26.017 8.91701 26.017 9.21148V23.1964C26.0443 27.0244 23.063 30.1522 19.2288 30.3078L6.99397 30.3094H6.82767C3.0897 30.2249 0.091792 27.2018 0.000460514 23.5003L0 6.85116C0.0884927 3.06581 3.21473 0.0173934 6.97261 0.0173934L16.5513 0.0161123C16.6138 0.00551726 16.678 0 16.7436 0ZM15.5991 2.30539L6.97566 2.306C4.44752 2.306 2.34811 4.35353 2.2886 6.87863V23.1964C2.23215 25.81 4.29189 27.9628 6.87954 28.0207H19.1831C21.7295 27.9155 23.7466 25.7993 23.7284 23.2055L23.7282 10.6542L20.6617 10.6557C17.8696 10.6481 15.5993 8.37171 15.5993 5.58267L15.5991 2.30539ZM16.4586 19.2366C17.0902 19.2366 17.6029 19.7493 17.6029 20.3809C17.6029 21.0126 17.0902 21.5252 16.4586 21.5252H8.2196C7.58794 21.5252 7.07529 21.0126 7.07529 20.3809C7.07529 19.7493 7.58794 19.2366 8.2196 19.2366H16.4586ZM13.3386 13.5121C13.9702 13.5121 14.4829 14.0247 14.4829 14.6564C14.4829 15.288 13.9702 15.8007 13.3386 15.8007H8.21822C7.58657 15.8007 7.07392 15.288 7.07392 14.6564C7.07392 14.0247 7.58657 13.5121 8.21822 13.5121H13.3386ZM17.8877 3.58853L17.8879 5.58267C17.8879 7.11451 19.1344 8.36256 20.6647 8.36714L22.4741 8.36561L17.8877 3.58853Z" fill="#808080"/>
</svg>
