<svg width="24" height="25" viewBox="0 0 24 25" fill="none" xmlns="http://www.w3.org/2000/svg">
<path fill-rule="evenodd" clip-rule="evenodd" d="M11.4882 0C17.8226 0 22.9751 5.15251 22.9751 11.487C22.9751 14.4756 21.8282 17.2013 19.9514 19.247L23.6445 22.9323C23.9901 23.278 23.9913 23.8371 23.6456 24.1827C23.4734 24.3573 23.2457 24.4434 23.0193 24.4434C22.794 24.4434 22.5675 24.3573 22.3941 24.1851L18.6565 20.4579C16.6903 22.0325 14.1973 22.9751 11.4882 22.9751C5.15369 22.9751 0 17.8215 0 11.487C0 5.15251 5.15369 0 11.4882 0ZM11.4882 1.76941C6.12922 1.76941 1.76941 6.12804 1.76941 11.487C1.76941 16.8459 6.12922 21.2057 11.4882 21.2057C16.8459 21.2057 21.2057 16.8459 21.2057 11.487C21.2057 6.12804 16.8459 1.76941 11.4882 1.76941Z" fill="#F75707"/>
</svg>
