<svg width="26" height="28" viewBox="0 0 26 28" fill="none" xmlns="http://www.w3.org/2000/svg">
<path fill-rule="evenodd" clip-rule="evenodd" d="M13.8424 0C14.8077 0 15.7461 0.396371 16.4188 1.0853C17.0902 1.77828 17.461 2.72876 17.4327 3.69272C17.4354 3.90978 17.5068 4.16055 17.6362 4.3803C17.8506 4.74432 18.189 5.00047 18.5908 5.10563C18.9925 5.2054 19.4132 5.15147 19.7704 4.93981C21.4961 3.95427 23.6924 4.54478 24.6779 6.257L25.5178 7.71171C25.5394 7.7508 25.5583 7.78855 25.5744 7.82765C26.4669 9.51425 25.871 11.6377 24.2128 12.607C23.9714 12.7459 23.7759 12.94 23.6411 13.1746C23.4322 13.5373 23.3742 13.9687 23.4793 14.3651C23.5872 14.7695 23.8447 15.1052 24.2074 15.3129C25.0257 15.7834 25.6365 16.5761 25.8805 17.4915C26.1245 18.4056 25.991 19.3979 25.5151 20.2163L24.6199 21.7074C23.6344 23.4007 21.4382 23.9872 19.73 23.0003C19.5021 22.8695 19.2392 22.7981 18.9777 22.7913H18.9696C18.58 22.7913 18.1796 22.9572 17.8884 23.247C17.5931 23.5423 17.4313 23.9359 17.434 24.3539C17.4246 26.3344 15.8135 27.9361 13.8424 27.9361H12.1531C10.1726 27.9361 8.5615 26.3263 8.5615 24.3458C8.55881 24.1018 8.4887 23.8483 8.35792 23.6286C8.14626 23.2592 7.80381 22.9949 7.40879 22.8897C7.01647 22.7846 6.58639 22.8426 6.23316 23.0475C5.38649 23.5194 4.39017 23.6339 3.47879 23.3778C2.56875 23.1203 1.78275 22.4947 1.32167 21.6656L0.479042 20.2136C-0.506492 18.504 0.0799749 16.3132 1.7868 15.3263C2.2708 15.0473 2.57145 14.5269 2.57145 13.9687C2.57145 13.4105 2.2708 12.8888 1.7868 12.6097C0.0786268 11.6174 -0.506492 9.42122 0.477694 7.71171L1.39177 6.21116C2.36383 4.52052 4.56139 3.92461 6.27495 4.9088C6.50819 5.04766 6.76166 5.11777 7.01916 5.12046C7.85909 5.12046 8.5615 4.42749 8.57498 3.57543C8.56959 2.63573 8.94035 1.73379 9.61579 1.05294C10.2939 0.373451 11.1945 0 12.1531 0H13.8424ZM13.8424 2.0223H12.1531C11.7352 2.0223 11.3442 2.18543 11.0489 2.47934C10.755 2.7746 10.5946 3.16692 10.5973 3.58486C10.569 5.55593 8.95787 7.14277 7.00703 7.14277C6.38146 7.13602 5.77882 6.9675 5.25572 6.65472C4.52095 6.23677 3.56103 6.49428 3.13095 7.24253L2.21822 8.74308C1.80028 9.46841 2.05644 10.427 2.80064 10.8598C3.90482 11.4988 4.59375 12.6906 4.59375 13.9687C4.59375 15.2468 3.90482 16.4373 2.79795 17.0777C2.05778 17.5064 1.80163 18.4596 2.23035 19.2011L3.08107 20.6679C3.29139 21.0468 3.63518 21.3204 4.0329 21.4323C4.42927 21.5429 4.86609 21.4957 5.2301 21.2935C5.76534 20.9793 6.3882 20.8162 7.01377 20.8162C7.32251 20.8162 7.63124 20.8553 7.93324 20.9362C8.84462 21.1816 9.63602 21.791 10.1052 22.6093C10.4099 23.123 10.5784 23.7229 10.5838 24.335C10.5838 25.2113 11.2876 25.9138 12.1531 25.9138H13.8424C14.7039 25.9138 15.4077 25.2154 15.4117 24.3539C15.4063 23.4021 15.7784 22.4974 16.4593 21.8166C17.1307 21.1452 18.069 20.7421 19.0074 20.769C19.6221 20.7839 20.214 20.9497 20.7358 21.2463C21.4867 21.6764 22.4453 21.4202 22.8794 20.6787L23.7746 19.1862C23.9741 18.8424 24.0321 18.411 23.9256 18.0133C23.8204 17.6156 23.5562 17.2704 23.2003 17.0669C22.3671 16.5869 21.7725 15.813 21.5258 14.8855C21.2818 13.9754 21.4152 12.9818 21.8912 12.1635C22.2012 11.6242 22.6556 11.1698 23.2003 10.8571C23.931 10.4297 24.1871 9.4738 23.7625 8.7296C23.7449 8.69994 23.7288 8.66893 23.7153 8.63657L22.9252 7.2668C22.4952 6.51855 21.5379 6.26104 20.787 6.68842C19.9754 7.16838 19.0101 7.3059 18.0825 7.06187C17.1563 6.82189 16.3797 6.23543 15.8957 5.40763C15.5856 4.88992 15.4171 4.28728 15.4117 3.67385C15.4238 3.21276 15.2621 2.79886 14.9681 2.49552C14.6756 2.19352 14.2644 2.0223 13.8424 2.0223ZM13.0037 9.40248C15.5208 9.40248 17.5687 11.4517 17.5687 13.9688C17.5687 16.4859 15.5208 18.5325 13.0037 18.5325C10.4866 18.5325 8.43868 16.4859 8.43868 13.9688C8.43868 11.4517 10.4866 9.40248 13.0037 9.40248ZM13.0037 11.4248C11.6016 11.4248 10.461 12.5667 10.461 13.9688C10.461 15.371 11.6016 16.5102 13.0037 16.5102C14.4058 16.5102 15.5464 15.371 15.5464 13.9688C15.5464 12.5667 14.4058 11.4248 13.0037 11.4248Z" fill="#808080"/>
</svg>
