<svg width="50" height="51" viewBox="0 0 50 51" fill="none" xmlns="http://www.w3.org/2000/svg">
<path fill-rule="evenodd" clip-rule="evenodd" d="M25.004 0C31.6874 0 37.9684 2.59847 42.6861 7.31851C52.438 17.0703 52.438 32.9356 42.6861 42.6875C37.9056 47.4703 31.4688 50.0013 24.9482 50.0013C21.3936 50.0013 17.8158 49.2499 14.4682 47.7006C13.4819 47.3051 12.5583 46.9329 11.8953 46.9329C11.1323 46.9376 10.1064 47.2912 9.11543 47.6331C7.08225 48.331 4.55124 49.2011 2.67858 47.3354C0.812893 45.4674 1.67362 42.9433 2.36686 40.9125C2.70882 39.9122 3.06009 38.8793 3.06009 38.0977C3.06009 37.4556 2.75069 36.6368 2.27613 35.4573C-2.08101 26.0475 -0.0664454 14.7068 7.32418 7.32084C12.0419 2.60079 18.3206 0 25.004 0ZM25.0063 3.48944C19.2534 3.48944 13.8494 5.72733 9.79005 9.78904C3.42997 16.1445 1.69921 25.9033 5.47943 34.0755C6.02379 35.4224 6.54953 36.7345 6.54953 38.0977C6.54953 39.4586 6.08194 40.8287 5.67019 42.0384C5.33055 43.0341 4.81644 44.5369 5.14677 44.8672C5.47013 45.2022 6.98222 44.6741 7.9802 44.3321C9.17824 43.9227 10.5368 43.4528 11.8837 43.4435C13.233 43.4435 14.5054 43.9553 15.8524 44.4973C24.1037 48.3124 33.8625 46.577 40.2203 40.2216C48.6089 31.8283 48.6089 18.1753 40.2203 9.78671C36.1586 5.725 30.7569 3.48944 25.0063 3.48944ZM34.188 23.6414C35.4721 23.6414 36.5143 24.6813 36.5143 25.9677C36.5143 27.2541 35.4721 28.294 34.188 28.294C32.9039 28.294 31.8524 27.2541 31.8524 25.9677C31.8524 24.6813 32.8829 23.6414 34.167 23.6414H34.188ZM24.8623 23.6414C26.1464 23.6414 27.1886 24.6813 27.1886 25.9677C27.1886 27.2541 26.1464 28.294 24.8623 28.294C23.5782 28.294 22.5267 27.2541 22.5267 25.9677C22.5267 24.6813 23.555 23.6414 24.8414 23.6414H24.8623ZM15.5358 23.6414C16.8199 23.6414 17.8621 24.6813 17.8621 25.9677C17.8621 27.2541 16.8199 28.294 15.5358 28.294C14.2516 28.294 13.2002 27.2541 13.2002 25.9677C13.2002 24.6813 14.2307 23.6414 15.5148 23.6414H15.5358Z" fill="#F75707"/>
</svg>
