<svg width="70" height="83" viewBox="0 0 70 83" fill="none" xmlns="http://www.w3.org/2000/svg">
<g clip-path="url(#clip0_3_87)">
<path d="M55.9898 83C55.006 82.6965 54.5654 81.9725 54.3858 80.9818C53.896 78.27 52.7347 75.9571 50.4058 74.3876C49.8441 74.024 49.2645 73.6897 48.6692 73.3861C48.0276 73.0436 47.5999 72.5559 47.5999 71.7994C47.5999 71.0428 48.0896 70.6743 48.6692 70.295C49.8198 69.5254 51.0217 68.7884 52.0161 67.8389C53.2031 66.7074 53.8276 65.1856 54.1676 63.5577C54.2915 62.9482 54.458 62.3484 54.6659 61.7628C54.7603 61.4762 54.9439 61.2284 55.1892 61.0568C55.4346 60.8851 55.7283 60.7989 56.0261 60.8112C56.6677 60.8112 57.1959 61.119 57.3906 61.7455C57.7417 62.8246 58.0225 63.926 58.2311 65.0426C58.2867 65.3656 57.9937 65.9205 57.7028 66.0917C57.412 66.263 56.9308 66.0917 56.5458 66.018C56.364 65.979 56.2165 65.7796 55.9427 65.565C54.9375 68.2768 53.124 70.2343 50.7843 71.7495C51.8707 72.725 52.9614 73.5205 53.8148 74.5264C54.6681 75.5322 55.2861 76.7526 56.1309 78.0728C57.1468 75.4 58.9111 73.4121 61.3663 71.8991C60.9065 71.5219 60.5964 71.2856 60.297 71.032C59.8308 70.6201 59.5677 70.1302 59.9741 69.5406C60.3569 68.9835 60.9086 68.9336 61.4711 69.2219C62.2114 69.595 62.9317 70.0075 63.629 70.4575C64.7368 71.1881 64.6983 72.5494 63.5948 73.2561C63.4806 73.3267 63.3629 73.3911 63.2419 73.449C60.205 74.9512 58.323 77.3509 57.7392 80.7586C57.5638 81.7839 57.1639 82.6076 56.1502 83.0043L55.9898 83Z" fill="#F75707"/>
<path d="M4.4719 36.2118C4.98732 36.2704 5.32737 36.3397 5.65244 36.3397C10.6683 36.3484 15.6834 36.3484 20.6978 36.3397C21.9147 36.3397 21.996 36.1902 21.3843 35.1106C18.8678 30.674 16.3471 26.2396 13.8221 21.8073C13.6659 21.5363 13.4692 21.2892 13.2125 20.9142C12.9752 21.248 12.7848 21.4648 12.6522 21.7076C12.0791 22.6831 11.5358 23.6802 10.9413 24.647C10.5136 25.3645 9.88696 25.5661 9.32877 25.2453C8.77059 24.9245 8.66152 24.285 9.07855 23.5307C9.99104 21.8774 10.9235 20.2343 11.8759 18.6013C12.0875 18.221 12.3966 17.9059 12.7704 17.6891C13.1443 17.4724 13.569 17.3621 13.9996 17.37C14.2947 17.37 14.5877 17.37 14.8807 17.37C28.0868 17.37 41.2908 17.3895 54.497 17.3418C56.2079 17.3418 57.2601 17.9401 58.0963 19.4488C61.0904 24.8573 64.1829 30.2072 67.239 35.5789C68.2292 37.313 68.2164 37.7314 66.8861 39.2466C62.2011 44.5836 57.5068 49.9133 52.8032 55.2358C47.5777 61.1725 42.3523 67.1077 37.1269 73.0415C36.9323 73.2582 36.7355 73.475 36.5345 73.6918C35.1358 75.2092 34.2397 75.2092 32.8817 73.7048C31.3718 72.0226 29.8876 70.3145 28.3905 68.6172L12.9388 51.0347C9.35301 46.9522 5.76722 42.8689 2.18142 38.7849C1.45214 37.9547 1.34735 37.1396 1.88843 36.1706C3.25716 33.7139 4.64442 31.2738 6.05022 28.8503C6.47795 28.1067 7.13879 27.8943 7.71837 28.2433C8.2573 28.5663 8.35996 29.1841 7.93223 29.9645C6.95059 31.7355 5.93687 33.487 4.93813 35.2472C4.80125 35.5073 4.68577 35.7761 4.4719 36.2118ZM34.7252 20.873C34.4514 21.2871 34.2632 21.5385 34.1093 21.8095C31.5842 26.2403 29.0621 30.6726 26.5427 35.1063C25.9332 36.1772 26.0123 36.3397 27.2228 36.3419C30.2618 36.3419 33.303 36.3419 36.3441 36.3419C36.6906 36.3346 37.0372 36.3513 37.3814 36.3918C37.9182 36.4676 38.3588 36.7993 38.2582 37.3456C38.134 37.7838 37.8662 38.166 37.499 38.4294C37.2638 38.6072 36.8318 38.5465 36.4874 38.5465C33.1811 38.5465 29.8726 38.5465 26.5662 38.5465C25.621 38.5465 25.4969 38.7156 25.7407 39.5892C28.6008 49.5188 31.4652 59.4477 34.3338 69.3759C34.4022 69.6143 34.5156 69.8398 34.6952 70.2841C34.8749 69.8506 34.984 69.6338 35.0481 69.417C37.9353 59.5062 40.8218 49.5889 43.7075 39.665C43.8936 39.0147 43.9214 38.6093 43.1065 38.4511C42.9269 38.385 42.7651 38.277 42.6344 38.1358C42.5036 37.9946 42.4074 37.8241 42.3537 37.6382C42.2874 37.3174 42.4756 36.7061 42.7194 36.5955C43.5749 36.2097 43.2969 35.7631 42.9761 35.2017C40.4097 30.7015 37.8469 26.1984 35.2877 21.6924C35.1529 21.467 34.9904 21.2567 34.7252 20.873ZM37.6145 68.7104L37.8604 68.8361L64.2385 38.8868L64.0973 38.6505C63.7402 38.6202 63.383 38.5682 63.028 38.566C57.9352 38.566 52.8424 38.566 47.7495 38.566C46.3081 38.566 46.2974 38.566 45.8868 39.9772C43.1964 49.2507 40.5095 58.5242 37.8262 67.7978C37.745 68.0969 37.6915 68.4069 37.6231 68.7104H37.6145ZM31.5386 68.8448L31.7653 68.6974C31.7204 68.4654 31.6947 68.2291 31.6284 68.0059C28.9038 58.5459 26.1827 49.0867 23.4652 39.6282C23.2235 38.7828 22.7937 38.5443 21.9682 38.5443C16.7178 38.5725 11.4653 38.5573 6.21276 38.5617C5.90908 38.5617 5.60753 38.6093 5.30598 38.6354L5.18193 38.8673L31.5386 68.8448ZM56.2507 20.9251C55.9983 21.2871 55.7973 21.5298 55.6433 21.7921C53.0769 26.2923 50.5198 30.7947 47.972 35.2992C47.4801 36.1663 47.5635 36.3289 48.528 36.3311C53.6736 36.3397 58.8185 36.3397 63.9626 36.3311C64.9122 36.3311 65.0127 36.1143 64.5336 35.2797C61.9673 30.7535 59.3945 26.2295 56.8152 21.7076C56.6741 21.4691 56.4859 21.2524 56.2507 20.9251ZM23.9293 35.1106C24.2501 34.6251 24.4233 34.391 24.5709 34.1395C27.1059 29.6841 29.6366 25.2273 32.1631 20.769C32.7448 19.7415 32.655 19.5767 31.4916 19.5746C26.4272 19.5746 21.3615 19.5746 16.2943 19.5746C15.9214 19.6009 15.5501 19.648 15.1822 19.7155C18.1165 24.8855 20.9694 29.9016 23.9293 35.1106ZM45.4997 34.9914C45.7328 34.6576 45.9274 34.4343 46.0579 34.1872C48.6328 29.6653 51.2034 25.1406 53.7698 20.6129C54.2574 19.7458 54.1719 19.5789 53.2138 19.5767C48.0696 19.5681 42.9255 19.5681 37.7813 19.5767C36.8317 19.5767 36.7355 19.7718 37.2188 20.6216C39.7852 25.1492 42.3559 29.6747 44.9308 34.198C45.1071 34.472 45.297 34.7368 45.4997 34.9914Z" fill="#F75707"/>
<path d="M5.80371 0.0783642C6.05993 -0.00771613 6.33491 -0.0187999 6.59707 0.0463855C6.85923 0.111571 7.09795 0.250385 7.28579 0.44688C7.41995 0.577886 7.5397 0.72325 7.64294 0.880425C7.87819 1.25111 7.92951 1.74751 8.03003 2.19407C8.48984 4.23389 9.70673 5.66242 11.5032 6.60755C12.1448 6.94355 12.7244 7.29472 12.7179 8.14881C12.7115 9.00289 12.1683 9.37573 11.5224 9.71607C9.6661 10.6872 8.44065 12.1678 8.00009 14.2683C7.92013 14.6928 7.80276 15.1093 7.64936 15.5126C7.56209 15.7872 7.38717 16.0247 7.15216 16.1875C6.91715 16.3504 6.63538 16.4294 6.3512 16.4122C6.06738 16.4162 5.79 16.3264 5.56113 16.1562C5.33225 15.986 5.16439 15.7448 5.08299 15.4692C4.93811 15.0333 4.81674 14.5897 4.71941 14.1404C4.25533 12.1071 3.05554 10.672 1.25266 9.72257C1.11151 9.64887 0.966086 9.57734 0.824935 9.49063C-0.276467 8.79479 -0.304262 7.40093 0.859161 6.82215C3.14751 5.68626 4.46919 3.89139 4.92259 1.35949C5.05946 0.657147 5.31182 0.258285 5.80371 0.0783642ZM6.47737 11.6042C6.84979 11.0344 7.25096 10.4845 7.67929 9.95669C8.15835 9.41692 8.74861 8.98338 9.23195 8.43928C9.33033 8.32873 9.19773 7.8735 9.04161 7.69358C8.42781 6.98474 7.74559 6.33441 7.11683 5.63641C6.88039 5.33926 6.66594 5.02481 6.47523 4.69561C5.42516 5.80982 4.43283 6.84816 3.4683 7.91252C3.42778 7.99741 3.40945 8.09143 3.41507 8.18557C3.42068 8.2797 3.45006 8.37079 3.50038 8.45012C4.45636 9.49279 5.43585 10.5095 6.47737 11.6042V11.6042Z" fill="#F75707"/>
<path d="M69.7819 17.1684C69.9226 17.3546 69.9999 17.582 70.0022 17.8165C70.0045 18.051 69.9317 18.28 69.7947 18.469C69.6403 18.7167 69.4354 18.9281 69.1937 19.089C67.7951 19.878 66.9075 20.9836 66.6274 22.5985C66.4948 23.3377 66.1184 23.9338 65.2565 23.9208C64.4374 23.9057 64.0802 23.3312 63.9434 22.6202C63.6311 21.0226 62.7714 19.8975 61.377 19.1041C60.2072 18.4408 60.2264 17.2182 61.4091 16.5614C62.7949 15.7919 63.6418 14.6885 63.9263 13.1104C64.061 12.3604 64.4417 11.7447 65.2736 11.7469C66.1055 11.7491 66.4841 12.3669 66.6338 13.1082C66.7601 13.8578 67.0607 14.5661 67.5107 15.1745C67.9607 15.7829 68.5471 16.2739 69.2215 16.6069C69.446 16.751 69.6371 16.9425 69.7819 17.1684V17.1684ZM66.9268 17.8794L65.3078 16.2037C64.8052 16.7327 63.9241 17.2529 63.9092 17.797C63.8942 18.3411 64.7646 18.8982 65.233 19.451L66.9268 17.8794Z" fill="#F75707"/>
</g>
<defs>
<clipPath id="clip0_3_87">
<rect width="70" height="83" fill="white"/>
</clipPath>
</defs>
</svg>
