<svg width="26" height="26" viewBox="0 0 26 26" fill="none" xmlns="http://www.w3.org/2000/svg">
<path fill-rule="evenodd" clip-rule="evenodd" d="M13.0021 0C16.4775 0 19.7436 1.3512 22.1968 3.80563C27.2677 8.87657 27.2677 17.1265 22.1968 22.1975C19.7109 24.6846 16.3638 26.0007 12.973 26.0007C11.1247 26.0007 9.26419 25.61 7.52348 24.8043C7.01058 24.5987 6.53034 24.4051 6.18558 24.4051C5.78881 24.4075 5.25534 24.5914 4.74002 24.7692C3.68277 25.1321 2.36665 25.5846 1.39286 24.6144C0.422704 23.643 0.870283 22.3305 1.23076 21.2745C1.40859 20.7543 1.59125 20.2172 1.59125 19.8108C1.59125 19.4769 1.43036 19.0511 1.18359 18.4378C-1.08213 13.5447 -0.0345516 7.64754 3.80858 3.80684C6.26179 1.35241 9.52669 0 13.0021 0ZM13.0033 1.81451C10.0118 1.81451 7.2017 2.97821 5.09083 5.0903C1.78358 8.39512 0.883589 13.4697 2.84931 17.7193C3.13237 18.4197 3.40575 19.1019 3.40575 19.8108C3.40575 20.5185 3.16261 21.2309 2.9485 21.86C2.77189 22.3777 2.50455 23.1592 2.67632 23.3309C2.84447 23.5051 3.63075 23.2305 4.1497 23.0527C4.77268 22.8398 5.47913 22.5955 6.17953 22.5906C6.88114 22.5906 7.54283 22.8567 8.24323 23.1386C12.5339 25.1225 17.6085 24.22 20.9145 20.9152C25.2766 16.5507 25.2766 9.45116 20.9145 5.08909C18.8025 2.977 15.9936 1.81451 13.0033 1.81451ZM17.7777 12.2935C18.4455 12.2935 18.9874 12.8343 18.9874 13.5032C18.9874 14.1721 18.4455 14.7129 17.7777 14.7129C17.11 14.7129 16.5632 14.1721 16.5632 13.5032C16.5632 12.8343 17.0991 12.2935 17.7669 12.2935H17.7777ZM12.9284 12.2935C13.5961 12.2935 14.1381 12.8343 14.1381 13.5032C14.1381 14.1721 13.5961 14.7129 12.9284 14.7129C12.2607 14.7129 11.7139 14.1721 11.7139 13.5032C11.7139 12.8343 12.2486 12.2935 12.9175 12.2935H12.9284ZM8.07859 12.2935C8.74633 12.2935 9.28827 12.8343 9.28827 13.5032C9.28827 14.1721 8.74633 14.7129 8.07859 14.7129C7.41086 14.7129 6.86408 14.1721 6.86408 13.5032C6.86408 12.8343 7.39997 12.2935 8.06771 12.2935H8.07859Z" fill="#808080"/>
</svg>
