<svg width="26" height="31" viewBox="0 0 26 31" fill="none" xmlns="http://www.w3.org/2000/svg">
<path fill-rule="evenodd" clip-rule="evenodd" d="M10.2334 26.6948C10.9571 27.501 11.8863 27.9439 12.8503 27.9439H12.8517C13.82 27.9439 14.7533 27.501 15.4785 26.6934C15.8669 26.2645 16.5291 26.2296 16.9581 26.6166C17.3884 27.0036 17.4234 27.6673 17.0363 28.0962C15.9074 29.3495 14.4222 30.0397 12.8517 30.0397H12.8489C11.2827 30.0383 9.80025 29.3481 8.67551 28.0948C8.28849 27.6659 8.32342 27.0022 8.75375 26.6166C9.18409 26.2282 9.84636 26.2631 10.2334 26.6948ZM12.9199 0C19.1305 0 23.3025 4.83709 23.3025 9.35423C23.3025 11.6778 23.8935 12.6628 24.5208 13.7079C25.1412 14.739 25.844 15.9099 25.844 18.123C25.3564 23.7775 19.4532 24.2386 12.9199 24.2386C6.38662 24.2386 0.48207 23.7775 1.84937e-05 18.2125C-0.00415444 15.9099 0.698635 14.739 1.31899 13.7079L1.53799 13.3393C2.07721 12.4125 2.53735 11.4044 2.53735 9.35423C2.53735 4.83709 6.70937 0 12.9199 0ZM12.9199 2.09579C8.03671 2.09579 4.63314 5.92132 4.63314 9.35423C4.63314 12.259 3.82696 13.6017 3.11439 14.7865C2.54293 15.738 2.09164 16.4897 2.09164 18.123C2.32497 20.7581 4.06448 22.1428 12.9199 22.1428C21.7264 22.1428 23.5204 20.6967 23.7524 18.0322C23.7482 16.4897 23.2969 15.738 22.7254 14.7865C22.0129 13.6017 21.2067 12.259 21.2067 9.35423C21.2067 5.92132 17.8031 2.09579 12.9199 2.09579Z" fill="#808080"/>
</svg>
